<svg width="82" height="81" viewBox="0 0 82 81" fill="none" xmlns="http://www.w3.org/2000/svg">
<path d="M61.6392 80.7666C54.4077 80.7666 48.5244 74.8833 48.5244 67.6519C48.5244 60.4204 54.4077 54.5371 61.6392 54.5371C68.8706 54.5371 74.7539 60.4204 74.7539 67.6519C74.7539 74.8833 68.8706 80.7666 61.6392 80.7666ZM61.6392 59.783C57.2995 59.783 53.7703 63.3135 53.7703 67.6519C53.7703 71.9902 57.2995 75.5207 61.6392 75.5207C65.9788 75.5207 69.508 71.9902 69.508 67.6519C69.508 63.3135 65.9788 59.783 61.6392 59.783Z" fill="#1F9CE1"/>
<path d="M24.918 80.7666C17.6865 80.7666 11.8032 74.8833 11.8032 67.6519C11.8032 60.4204 17.6865 54.5371 24.918 54.5371C32.1494 54.5371 38.0327 60.4204 38.0327 67.6519C38.0327 74.8833 32.1494 80.7666 24.918 80.7666ZM24.918 59.783C20.5783 59.783 17.0491 63.3135 17.0491 67.6519C17.0491 71.9902 20.5783 75.5207 24.918 75.5207C29.2576 75.5207 32.7868 71.9902 32.7868 67.6519C32.7868 63.3135 29.2576 59.783 24.918 59.783Z" fill="#1F9CE1"/>
<path d="M65.5736 26.9963H55.0818V20.439H65.5736V26.9963Z" fill="#1F9CE1"/>
<path d="M65.5736 49.2913H55.0818V42.7339H65.5736V49.2913Z" fill="#1F9CE1"/>
<path d="M36.7211 16.5046H28.8523V9.94727H36.7211V16.5046Z" fill="#1F9CE1"/>
<path d="M36.7211 36.177H28.8523V29.6196H36.7211V36.177Z" fill="#1F9CE1"/>
<path d="M61.6867 63.8989C59.5611 63.8989 57.8313 65.6287 57.8313 67.7543C57.8313 69.88 59.5611 71.6098 61.6867 71.6098C63.8123 71.6098 65.5421 69.88 65.5421 67.7543C65.5421 65.6287 63.8123 63.8989 61.6867 63.8989ZM61.6867 69.0395C60.9773 69.0395 60.4016 68.4625 60.4016 67.7543C60.4016 67.0462 60.9773 66.4692 61.6867 66.4692C62.3961 66.4692 62.9719 67.0462 62.9719 67.7543C62.9719 68.4625 62.3961 69.0395 61.6867 69.0395Z" fill="#1E1E1E"/>
<path d="M61.6866 58.5977C56.6387 58.5977 52.53 62.7051 52.53 67.7543C52.53 72.8035 56.6387 76.9109 61.6866 76.9109C66.7346 76.9109 70.8433 72.8035 70.8433 67.7543C70.8433 62.7051 66.7346 58.5977 61.6866 58.5977ZM61.6866 74.2947C58.0802 74.2947 55.1462 71.3607 55.1462 67.7543C55.1462 64.1479 58.0802 61.2138 61.6866 61.2138C65.293 61.2138 68.2271 64.1479 68.2271 67.7543C68.2271 71.3607 65.293 74.2947 61.6866 74.2947Z" fill="#1E1E1E"/>
<path d="M25.0603 63.8989C22.9346 63.8989 21.2048 65.6287 21.2048 67.7543C21.2048 69.88 22.9346 71.6098 25.0603 71.6098C27.1859 71.6098 28.9157 69.88 28.9157 67.7543C28.9157 65.6287 27.1859 63.8989 25.0603 63.8989ZM25.0603 69.0395C24.3509 69.0395 23.7751 68.4625 23.7751 67.7543C23.7751 67.0462 24.3509 66.4692 25.0603 66.4692C25.7696 66.4692 26.3454 67.0462 26.3454 67.7543C26.3454 68.4625 25.7696 69.0395 25.0603 69.0395Z" fill="#1E1E1E"/>
<path d="M25.0602 58.5977C20.0123 58.5977 15.9036 62.7051 15.9036 67.7543C15.9036 72.8035 20.0123 76.9109 25.0602 76.9109C30.1081 76.9109 34.2168 72.8035 34.2168 67.7543C34.2168 62.7051 30.1081 58.5977 25.0602 58.5977ZM25.0602 74.2947C21.4538 74.2947 18.5197 71.3607 18.5197 67.7543C18.5197 64.1479 21.4538 61.2138 25.0602 61.2138C28.6666 61.2138 31.6006 64.1479 31.6006 67.7543C31.6006 71.3607 28.6666 74.2947 25.0602 74.2947Z" fill="#1E1E1E"/>
<path d="M77.5048 21.696C77.0424 21.696 76.6036 21.7902 76.1912 21.9367V19.0798H73.5639V0.766602H44.6638V8.61513H18.391V28.2365V29.5445V47.8578H3.94092C1.76816 47.8578 0 49.6185 0 51.7821C0 53.9456 1.76816 55.7063 3.94092 55.7063H74.8775C78.4992 55.7063 81.4457 52.7723 81.4457 49.1659V25.6203C81.4457 23.4567 79.6776 21.696 77.5048 21.696ZM61.4048 11.2313L70.9366 4.58753V17.8764L61.4048 11.2313ZM68.0834 19.0798H50.1443L59.1138 12.8285L68.0834 19.0798ZM59.1138 9.63413L50.1443 3.38278H68.0821L59.1138 9.63413ZM56.8228 11.2313L47.2911 17.8751V4.58753L56.8228 11.2313ZM47.2911 21.696H73.5639V25.6203V47.8578H47.2911V21.696ZM21.0182 11.2313H44.6638V19.0798V20.3879V28.2365H21.0182V11.2313ZM21.0182 30.8526H44.6638V47.8578H21.0182V30.8526ZM78.8184 49.1659C78.8184 51.3295 77.0503 53.0901 74.8775 53.0901H3.94092C3.21579 53.0901 2.62728 52.5028 2.62728 51.7821C2.62728 51.0613 3.21579 50.474 3.94092 50.474H73.5639C75.0128 50.474 76.1912 49.3006 76.1912 47.8578V25.6203C76.1912 24.8995 76.7797 24.3122 77.5048 24.3122C78.2299 24.3122 78.8184 24.8995 78.8184 25.6203V49.1659Z" fill="#1E1E1E"/>
</svg>
