<svg width="80" height="81" viewBox="0 0 80 81" fill="none" xmlns="http://www.w3.org/2000/svg">
<path d="M65.6496 7.20312H9.01061C4.74466 7.20312 1.28711 10.6607 1.28711 14.9266V20.0756H9.01061H16.7341H73.3731V14.9266C73.3731 10.6607 69.9156 7.20312 65.6496 7.20312Z" fill="#1F9CE1"/>
<path d="M51.4899 41.959H38.6174V32.9482H51.4899V41.959Z" fill="#1F9CE1"/>
<path d="M59.2133 53.5442H48.9153V47.1079H59.2133V53.5442Z" fill="#1F9CE1"/>
<path d="M74.8387 62.7021V14.9601C74.8387 9.9795 70.7858 5.92789 65.8064 5.92789H61.8052C61.2052 2.98725 58.5987 0.766602 55.4839 0.766602C52.369 0.766602 49.7626 2.98725 49.1626 5.92789H46.3213C45.7213 2.98725 43.1148 0.766602 40 0.766602C36.8852 0.766602 34.2787 2.98725 33.6787 5.92789H30.8374C30.2374 2.98725 27.631 0.766602 24.5161 0.766602C21.4013 0.766602 18.7948 2.98725 18.1948 5.92789H9.03226C4.0529 5.92789 0 9.9795 0 14.9601V80.7666H74.8387V75.475C77.7794 74.8763 80 72.2685 80 69.1537V62.7021H74.8387ZM25.8064 62.7021V69.1537C25.8064 71.2879 24.0697 73.0247 21.9355 73.0247C19.8013 73.0247 18.0645 71.2879 18.0645 69.1537V65.2827V21.4118H72.2581V62.7021H25.8064ZM15.4839 69.1537V78.186H12.9032V21.4118H15.4839V65.2827V69.1537ZM10.3226 21.4118V78.186H7.74194V21.4118H10.3226ZM55.4839 3.34725C57.1639 3.34725 58.5832 4.42983 59.1174 5.92789H51.8516C52.3845 4.42983 53.8039 3.34725 55.4839 3.34725ZM40 3.34725C41.68 3.34725 43.0994 4.42983 43.6335 5.92789H36.3677C36.9006 4.42983 38.32 3.34725 40 3.34725ZM24.5161 3.34725C26.1961 3.34725 27.6155 4.42983 28.1497 5.92789H20.8839C21.4168 4.42983 22.8361 3.34725 24.5161 3.34725ZM28.1497 8.50854C27.6155 10.0066 26.1961 11.0892 24.5161 11.0892V13.6698C27.631 13.6698 30.2374 11.4492 30.8374 8.50854H43.6335C43.0994 10.0066 41.68 11.0892 40 11.0892V13.6698C43.1148 13.6698 45.7213 11.4492 46.3213 8.50854H59.1174C58.5832 10.0066 57.1639 11.0892 55.4839 11.0892V13.6698C58.5987 13.6698 61.2052 11.4492 61.8052 8.50854H65.8064C69.3639 8.50854 72.2581 11.4027 72.2581 14.9601V18.8311H18.0645V14.9601C18.0645 12.4337 17.0194 10.1498 15.3406 8.50854H28.1497ZM9.03226 8.50854C12.5897 8.50854 15.4839 11.4027 15.4839 14.9601V18.8311H2.58065V14.9601C2.58065 11.4027 5.47484 8.50854 9.03226 8.50854ZM2.58065 21.4118H5.16129V78.186H2.58065V21.4118ZM72.2581 78.186H18.0645V74.2814C19.1458 75.1008 20.4774 75.6053 21.9355 75.6053H72.2581V78.186ZM77.4193 69.1537C77.4193 71.2879 75.6826 73.0247 73.5484 73.0247H27.0942C27.9058 71.946 28.3871 70.6053 28.3871 69.1537V65.2827H77.4193V69.1537Z" fill="#1E1E1E"/>
<path d="M60.1905 32.0049H29.7143C27.614 32.0049 25.9048 33.7296 25.9048 35.849V56.3512C25.9048 58.4706 27.614 60.1954 29.7143 60.1954H60.1905C62.2908 60.1954 64 58.4706 64 56.3512V35.849C64 33.7296 62.2908 32.0049 60.1905 32.0049ZM61.4603 56.3512C61.4603 57.0572 60.8915 57.6326 60.1905 57.6326H29.7143C29.0134 57.6326 28.4445 57.0572 28.4445 56.3512V35.849C28.4445 35.143 29.0134 34.5677 29.7143 34.5677H60.1905C60.8915 34.5677 61.4603 35.143 61.4603 35.849V56.3512Z" fill="#1E1E1E"/>
<path d="M48.762 52.5762H59.4286V54.8619H48.762V52.5762Z" fill="#1E1E1E"/>
<path d="M48.762 47.2427H51.8096V49.5284H48.762V47.2427Z" fill="#1E1E1E"/>
<path d="M54.0952 47.2427H59.4285V49.5284H54.0952V47.2427Z" fill="#1E1E1E"/>
</svg>
