<svg width="80" height="81" viewBox="0 0 80 81" fill="none" xmlns="http://www.w3.org/2000/svg">
<path d="M60.4351 10.1294C52.221 10.1294 45.2093 15.2998 42.4331 22.5495V36.2837C45.2093 43.5347 52.221 48.7051 60.4351 48.7051C71.0704 48.7051 79.7229 40.0526 79.7229 29.4172C79.7229 18.7819 71.0704 10.1294 60.4351 10.1294Z" fill="#1F9CE1"/>
<path d="M23.1454 46.1333V52.5626H7.71509V58.9919H28.2888V52.5626H36.0039V46.1333H23.1454Z" fill="#1F9CE1"/>
<path d="M18.002 16.5586H25.7171V22.9879H18.002V16.5586Z" fill="#1F9CE1"/>
<path d="M18.002 35.8467H25.7171V42.276H18.002V35.8467Z" fill="#1F9CE1"/>
<path d="M65.3001 61.4991H43.5334V1.61823L34.7307 6.03434L28.1687 0.766602L21.7667 5.90461L15.3647 0.766602L8.80271 6.03306L0 1.61823V56.3611C0 67.8394 5.41479 80.0781 20.4863 80.7345V80.7666H61.4589C67.8135 80.7666 72.9825 75.5798 72.9825 69.2061C72.9825 64.9557 69.5369 61.4991 65.3001 61.4991ZM2.56079 56.3611V5.77487L9.12281 9.06576L15.3647 4.05749L21.7667 9.1955L28.1687 4.05749L34.4106 9.06705L40.9726 5.77487V61.4991H25.6079C21.3711 61.4991 17.9255 64.9557 17.9255 69.2061V69.3602C17.9255 72.1091 20.1534 74.3441 22.8934 74.3441H23.0471H29.111C27.4888 76.6703 24.8038 78.1976 21.7667 78.1976C9.73996 78.1976 2.56079 70.0346 2.56079 56.3611ZM30.3517 71.7751H27.4555C27.8972 71.016 28.1687 70.1463 28.1687 69.2061H30.7295C30.7295 70.0988 30.595 70.9607 30.3517 71.7751ZM30.0419 66.6371H25.6079V69.2061C25.6079 70.6229 24.4594 71.7751 23.0471 71.7751H22.8934C21.567 71.7751 20.4863 70.691 20.4863 69.3602V69.2061C20.4863 66.3725 22.7833 64.0681 25.6079 64.0681C27.5003 64.0681 29.1558 65.1021 30.0419 66.6371ZM61.4589 78.1976H28.9932C31.6104 76.0769 33.2902 72.8361 33.2902 69.2061C33.2902 67.2305 32.5399 65.4335 31.3184 64.0681H65.3001C68.1246 64.0681 70.4217 66.3725 70.4217 69.2061C70.4217 74.1643 66.3999 78.1976 61.4589 78.1976Z" fill="#1E1E1E"/>
<path d="M56.7954 38.4016H59.3217V41.0007H61.848V38.4016H64.3743C65.7676 38.4016 66.9006 37.2359 66.9006 35.8025V30.6043C66.9006 29.1709 65.7676 28.0052 64.3743 28.0052H56.7954V22.8071H64.3743V25.4062H66.9006V22.8071C66.9006 21.3737 65.7676 20.208 64.3743 20.208H61.848V17.6089H59.3217V20.208H56.7954C55.4021 20.208 54.269 21.3737 54.269 22.8071V28.0052C54.269 29.4386 55.4021 30.6043 56.7954 30.6043H64.3743V35.8025H56.7954V33.2034H54.269V35.8025C54.269 37.2359 55.4021 38.4016 56.7954 38.4016Z" fill="#1E1E1E"/>
<path d="M30.8772 46.1465H36.0234V48.9535H30.8772V46.1465Z" fill="#1E1E1E"/>
<path d="M7.95312 51.293H36.0233V54.1H7.95312V51.293Z" fill="#1E1E1E"/>
<path d="M7.95312 56.439H13.0993V58.7781H7.95312V56.439Z" fill="#1E1E1E"/>
<path d="M15.4385 56.439H18.2455V58.7781H15.4385V56.439Z" fill="#1E1E1E"/>
<path d="M20.5847 56.439H22.9239V58.7781H20.5847V56.439Z" fill="#1E1E1E"/>
<path d="M25.731 56.439H28.0701V58.7781H25.731V56.439Z" fill="#1E1E1E"/>
<path d="M11.7809 43.8075H32.1955C34.3059 43.8075 36.0233 42.0615 36.0233 39.916V19.1611C36.0233 17.0155 34.3059 15.2695 32.1955 15.2695H11.7809C9.67051 15.2695 7.95312 17.0155 7.95312 19.1611V39.916C7.95312 42.0615 9.67051 43.8075 11.7809 43.8075ZM10.505 19.1611C10.505 18.4463 11.0766 17.8639 11.7809 17.8639H32.1955C32.8999 17.8639 33.4715 18.4463 33.4715 19.1611V39.916C33.4715 40.6307 32.8999 41.2132 32.1955 41.2132H11.7809C11.0766 41.2132 10.505 40.6307 10.505 39.916V19.1611Z" fill="#1E1E1E"/>
<path d="M22.9241 46.1465H28.0703V48.9535H22.9241V46.1465Z" fill="#1E1E1E"/>
</svg>
