<svg width="80" height="81" viewBox="0 0 80 81" fill="none" xmlns="http://www.w3.org/2000/svg">
<path d="M69.6776 36.1395L65.8067 32.6801L63.226 34.9872L60.6454 32.6801L56.7744 36.1395V25.2827H69.6776V36.1395Z" fill="#1F9CE1"/>
<path d="M69.6776 56.2503H56.7744V45.3936L60.6454 48.8529L63.226 46.5458L65.8067 48.8529L69.6776 45.3936V56.2503Z" fill="#1F9CE1"/>
<path d="M43.8711 65.283H15.484C14.0607 65.283 12.9033 64.1255 12.9033 62.7023V60.1217C12.9033 58.6984 14.0607 57.541 15.484 57.541H43.8711C45.2943 57.541 46.4517 58.6984 46.4517 60.1217V62.7023C46.4517 64.1255 45.2943 65.283 43.8711 65.283Z" fill="#1F9CE1"/>
<path d="M25.8066 25.2827H41.2905V45.9279H25.8066V25.2827Z" fill="#1F9CE1"/>
<path d="M76.129 23.9924H59.3548V9.79886C59.3548 4.81821 55.3032 0.766602 50.3226 0.766602H9.03226C4.05161 0.766602 0 4.81821 0 9.79886V71.7343C0 76.7137 4.05161 80.7666 9.03226 80.7666H50.3226C55.3032 80.7666 59.3548 76.7137 59.3548 71.7343V57.5408H76.129C78.2632 57.5408 80 55.804 80 53.6698V27.8634C80 25.7292 78.2632 23.9924 76.129 23.9924ZM56.7742 71.7343C56.7742 75.2918 53.88 78.186 50.3226 78.186H9.03226C5.47484 78.186 2.58065 75.2918 2.58065 71.7343V9.79886C2.58065 6.24144 5.47484 3.34725 9.03226 3.34725H50.3226C53.88 3.34725 56.7742 6.24144 56.7742 9.79886V23.9924H54.1935V13.6698C54.1935 12.2466 53.0361 11.0892 51.6129 11.0892H7.74194C6.31871 11.0892 5.16129 12.2466 5.16129 13.6698V67.8634C5.16129 69.2866 6.31871 70.444 7.74194 70.444H51.6129C53.0361 70.444 54.1935 69.2866 54.1935 67.8634V57.5408H56.7742V71.7343ZM7.74194 54.9601H46.689C47.2232 56.4582 48.6426 57.5408 50.3226 57.5408H51.6129V67.8634H7.74194V54.9601ZM46.4516 27.8634V52.3795H7.74194V13.6698H51.6129V23.9924H50.3226C48.1884 23.9924 46.4516 25.7292 46.4516 27.8634ZM77.4193 53.6698C77.4193 54.3821 76.84 54.9601 76.129 54.9601H50.3226C49.6116 54.9601 49.0323 54.3821 49.0323 53.6698V27.8634C49.0323 27.1524 49.6116 26.5731 50.3226 26.5731H76.129C76.84 26.5731 77.4193 27.1524 77.4193 27.8634V53.6698Z" fill="#1E1E1E"/>
<path d="M28.1379 5.73193H30.8966V8.49055H28.1379V5.73193Z" fill="#1E1E1E"/>
<path d="M28.1379 57.5942H30.8966V65.3184H28.1379V57.5942Z" fill="#1E1E1E"/>
<path d="M33.6553 57.5942H36.4139V65.3184H33.6553V57.5942Z" fill="#1E1E1E"/>
<path d="M18.2068 57.5942H20.4137V65.3184H18.2068V57.5942Z" fill="#1E1E1E"/>
<path d="M23.1724 57.5942H25.931V65.3184H23.1724V57.5942Z" fill="#1E1E1E"/>
<path d="M38.6206 57.5942H41.3792V65.3184H38.6206V57.5942Z" fill="#1E1E1E"/>
<path d="M15.4482 44.353H41.3793V47.1116H15.4482V44.353Z" fill="#1E1E1E"/>
<path d="M33.6553 39.3872H41.3794V42.1458H33.6553V39.3872Z" fill="#1E1E1E"/>
<path d="M25.9312 39.3872H30.8967V42.1458H25.9312V39.3872Z" fill="#1E1E1E"/>
<path d="M15.4482 34.4219H41.3793V37.1805H15.4482V34.4219Z" fill="#1E1E1E"/>
<path d="M15.4482 23.939H41.3793V26.6976H15.4482V23.939Z" fill="#1E1E1E"/>
<path d="M33.6553 28.9043H41.3794V31.6629H33.6553V28.9043Z" fill="#1E1E1E"/>
<path d="M25.9312 28.9043H30.8967V31.6629H25.9312V28.9043Z" fill="#1E1E1E"/>
</svg>
