<svg width="80" height="81" viewBox="0 0 80 81" fill="none" xmlns="http://www.w3.org/2000/svg">
<path d="M33.5485 49.7988H20.6453V27.8633H33.5485V49.7988Z" fill="#1F9CE1"/>
<path d="M74.0826 33.8131L80 32.8272V22.9008L72.9187 21.7201C72.1291 21.5872 71.4323 21.1614 70.9562 20.5189C70.1626 19.4466 70.151 17.9976 70.9265 16.9124L74.2839 12.2131L67.2645 5.1937L61.7316 9.14467C61.0052 9.66467 60.0761 9.76918 59.2503 9.42854C58.4232 9.08531 57.8426 8.35499 57.6942 7.47241L56.5768 0.766602H46.6491L45.5316 7.47112C45.3845 8.3537 44.8039 9.08402 43.9755 9.42725C43.1484 9.76789 42.2207 9.66467 41.4929 9.14338L35.9613 5.19241L28.942 12.2118L32.2994 16.9111C33.0749 17.9963 33.062 19.4453 32.2697 20.5176C31.7936 21.1601 31.0968 21.586 30.3084 21.7189L23.2258 22.8995V27.8634H37.4194C38.071 20.6285 44.2091 14.9601 51.6129 14.9601C59.4516 14.9601 65.8065 21.315 65.8065 29.1537C65.8065 36.5576 60.1381 42.6956 52.9032 43.3472V57.5408H56.5768L57.6336 51.195C57.8323 50.0014 58.5458 48.9653 59.591 48.3537C60.9716 47.546 62.7071 47.6234 64.0116 48.5537L68.4607 51.7318L75.4813 44.7137L71.7381 39.4724C71.0671 38.5318 70.8852 37.3189 71.2542 36.2247C71.68 34.9576 72.7639 34.0324 74.0826 33.8131Z" fill="#1F9CE1"/>
<path d="M15.4839 57.5407H18.0645V54.96H23.2258V60.1213H15.4839V70.4439H25.8065V65.2826H23.2258V67.8633H18.0645V62.702H25.8065V52.3794H15.4839V57.5407Z" fill="#1E1E1E"/>
<path d="M36.1289 52.3794H32.6979L28.387 62.4375V65.2826H33.5483V70.4439H36.1289V65.2826H38.7095V62.702H36.1289V52.3794ZM33.5483 62.702H31.0812L33.5483 56.9458V62.702Z" fill="#1E1E1E"/>
<path d="M36.1289 73.0249H38.7096V75.6055H36.1289V73.0249Z" fill="#1E1E1E"/>
<path d="M41.2903 73.0249H43.8709V75.6055H41.2903V73.0249Z" fill="#1E1E1E"/>
<path d="M46.4517 73.0249H49.0323V75.6055H46.4517V73.0249Z" fill="#1E1E1E"/>
<path d="M51.6129 13.6699C44.0452 13.6699 37.5432 19.2506 36.2981 26.5731H3.87097C1.73677 26.5731 0 28.3099 0 30.4441V76.8957C0 79.0299 1.73677 80.7667 3.87097 80.7667H50.3226C52.4568 80.7667 54.1936 79.0299 54.1936 76.8957V44.4686C61.5161 43.2235 67.0968 36.7215 67.0968 29.1538C67.0968 20.6157 60.151 13.6699 51.6129 13.6699ZM50.3226 78.1861H3.87097C3.16 78.1861 2.58065 77.608 2.58065 76.8957V44.6377H20.6452V42.057H2.58065V36.8957H20.6452V34.3151H2.58065V30.4441C2.58065 29.7319 3.16 29.1538 3.87097 29.1538H50.3226C51.0336 29.1538 51.6129 29.7319 51.6129 30.4441V34.3151H33.5484V36.8957H51.6129V42.057H33.5484V44.6377H51.6129V76.8957C51.6129 77.608 51.0336 78.1861 50.3226 78.1861ZM50.3226 26.5731H44.2335C45.3187 23.5486 48.2581 21.4119 51.6129 21.4119C55.8826 21.4119 59.3548 24.8841 59.3548 29.1538C59.3548 32.5099 57.2168 35.448 54.1936 36.5331V30.4441C54.1936 28.3099 52.4568 26.5731 50.3226 26.5731ZM54.1936 41.8467V39.2338C58.6761 38.0673 61.9355 33.9228 61.9355 29.1538C61.9355 23.4622 57.3045 18.8312 51.6129 18.8312C46.8426 18.8312 42.6981 22.0906 41.5329 26.5731H38.92C40.1342 20.6841 45.4503 16.2506 51.6129 16.2506C58.7277 16.2506 64.5161 22.039 64.5161 29.1538C64.5161 35.3164 60.0826 40.6338 54.1936 41.8467Z" fill="#1E1E1E"/>
<path d="M51.6128 11.0889C52.3255 11.0889 52.9032 10.5112 52.9032 9.79862C52.9032 9.086 52.3255 8.5083 51.6128 8.5083C50.9002 8.5083 50.3225 9.086 50.3225 9.79862C50.3225 10.5112 50.9002 11.0889 51.6128 11.0889Z" fill="#1E1E1E"/>
<path d="M38.7098 16.2506C39.4224 16.2506 40.0001 15.6729 40.0001 14.9602C40.0001 14.2476 39.4224 13.6699 38.7098 13.6699C37.9971 13.6699 37.4194 14.2476 37.4194 14.9602C37.4194 15.6729 37.9971 16.2506 38.7098 16.2506Z" fill="#1E1E1E"/>
<path d="M64.5162 16.2506C65.2288 16.2506 65.8065 15.6729 65.8065 14.9602C65.8065 14.2476 65.2288 13.6699 64.5162 13.6699C63.8035 13.6699 63.2258 14.2476 63.2258 14.9602C63.2258 15.6729 63.8035 16.2506 64.5162 16.2506Z" fill="#1E1E1E"/>
<path d="M70.9678 29.1539C71.6804 29.1539 72.2581 28.5762 72.2581 27.8636C72.2581 27.1509 71.6804 26.5732 70.9678 26.5732C70.2552 26.5732 69.6775 27.1509 69.6775 27.8636C69.6775 28.5762 70.2552 29.1539 70.9678 29.1539Z" fill="#1E1E1E"/>
<path d="M65.8064 43.3472C66.5191 43.3472 67.0968 42.7695 67.0968 42.0569C67.0968 41.3443 66.5191 40.7666 65.8064 40.7666C65.0938 40.7666 64.5161 41.3443 64.5161 42.0569C64.5161 42.7695 65.0938 43.3472 65.8064 43.3472Z" fill="#1E1E1E"/>
</svg>
