<svg width="80" height="81" viewBox="0 0 80 81" fill="none" xmlns="http://www.w3.org/2000/svg">
<path d="M64.5159 26.5728H46.4514V17.5405H64.5159V26.5728Z" fill="#1F9CE1"/>
<path d="M69.6773 48.5083H51.6128V42.0566H69.6773V48.5083Z" fill="#1F9CE1"/>
<path d="M43.8708 13.6695H20.645V2.05664H43.8708V13.6695Z" fill="#1F9CE1"/>
<path d="M74.8387 52.3795V18.8311C74.8387 17.4079 73.6813 16.2505 72.2581 16.2505H59.3548V3.34725C59.3548 1.92402 58.1974 0.766602 56.7742 0.766602H7.74194C6.31871 0.766602 5.16129 1.92402 5.16129 3.34725V52.3795H0V80.7666H80V52.3795H74.8387ZM72.2581 52.3795H38.7097V18.8311H72.2581V52.3795ZM7.74194 3.34725H56.7742V16.2505H38.7097C37.2864 16.2505 36.129 17.4079 36.129 18.8311V52.3795H7.74194V3.34725ZM77.4193 54.9601V57.5408H2.58065V54.9601H77.4193ZM25.8064 73.0247V78.186H15.4839V73.0247H25.8064ZM28.3871 73.0247H38.7097V78.186H28.3871V73.0247ZM41.2903 73.0247H51.6129V78.186H41.2903V73.0247ZM54.1935 73.0247H64.5161V78.186H54.1935V73.0247ZM2.58065 70.444V67.8634H77.4193V70.444H2.58065ZM54.1935 65.2827V60.1214H64.5161V65.2827H54.1935ZM51.6129 65.2827H41.2903V60.1214H51.6129V65.2827ZM38.7097 65.2827H28.3871V60.1214H38.7097V65.2827ZM25.8064 65.2827H15.4839V60.1214H25.8064V65.2827ZM12.9032 65.2827H2.58065V60.1214H12.9032V65.2827ZM67.0968 65.2827V60.1214H77.4193V65.2827H67.0968ZM2.58065 73.0247H12.9032V78.186H2.58065V73.0247ZM67.0968 78.186V73.0247H77.4193V78.186H67.0968Z" fill="#1E1E1E"/>
<path d="M51.5977 47.1572H69.5858V49.9975H51.5977V47.1572Z" fill="#1E1E1E"/>
<path d="M51.5977 41.9502H56.8048V44.7904H51.5977V41.9502Z" fill="#1E1E1E"/>
<path d="M59.1716 41.9502H69.5858V44.7904H59.1716V41.9502Z" fill="#1E1E1E"/>
<path d="M56.8047 21.5952H59.1716V26.8023H56.8047V21.5952Z" fill="#1E1E1E"/>
<path d="M51.5977 21.5952H53.9645V26.8023H51.5977V21.5952Z" fill="#1E1E1E"/>
<path d="M30.7693 5.97363H33.6095V13.5476H30.7693V5.97363Z" fill="#1E1E1E"/>
<path d="M35.9763 5.97363H38.8166V13.5476H35.9763V5.97363Z" fill="#1E1E1E"/>
<path d="M26.0354 5.97363H28.4023V13.5476H26.0354V5.97363Z" fill="#1E1E1E"/>
</svg>
