<svg width="80" height="81" viewBox="0 0 80 81" fill="none" xmlns="http://www.w3.org/2000/svg">
<path d="M59.5292 39.7139H49.4589L47.416 41.7311C44.6002 44.5116 40.781 46.0735 36.7995 46.0735C35.836 46.0735 35.0555 45.3027 35.0555 44.3513C35.0555 42.7589 35.3273 41.1982 35.8232 39.7139H15.7341C14.3134 39.7139 13.158 40.8548 13.158 42.2577V67.6963C13.158 69.0993 14.3134 70.2402 15.7341 70.2402H59.5292C60.9499 70.2402 62.1053 69.0993 62.1053 67.6963V42.2577C62.1053 40.8548 60.9499 39.7139 59.5292 39.7139Z" fill="#1F9CE1"/>
<path d="M46.3159 23.3983L42.4813 19.7498L39.9249 22.1826L37.3685 19.7498L34.8121 22.1826L32.2557 19.7498L28.4211 23.3983V7.08252H46.3159V23.3983Z" fill="#1F9CE1"/>
<path d="M20.5264 47.0825H28.4211V49.7141H20.5264V47.0825Z" fill="#1E1E1E"/>
<path d="M20.5264 57.6089H38.9474V60.2405H20.5264V57.6089Z" fill="#1E1E1E"/>
<path d="M20.5264 52.3457H54.2106V54.9773H20.5264V52.3457Z" fill="#1E1E1E"/>
<path d="M41.0527 62.8721H43.6843V65.5036H41.0527V62.8721Z" fill="#1E1E1E"/>
<path d="M46.3157 62.8721H48.9473V65.5036H46.3157V62.8721Z" fill="#1E1E1E"/>
<path d="M51.5789 62.8721H54.2104V65.5036H51.5789V62.8721Z" fill="#1E1E1E"/>
<path d="M43.6843 57.6089H54.2106V60.2405H43.6843V57.6089Z" fill="#1E1E1E"/>
<path d="M78.071 12.4969L78.8439 11.724C79.5897 10.9769 80 9.98596 80 8.93176C80 4.42983 76.3368 0.766602 71.8348 0.766602C70.7794 0.766602 69.7871 1.17692 69.0426 1.92273L65.0374 5.92789H3.87097C1.73677 5.92789 0 7.66467 0 9.79886V76.8956C0 79.0298 1.73677 80.7666 3.87097 80.7666H70.9677C73.1019 80.7666 74.8387 79.0298 74.8387 76.8956V23.2363L78.7097 19.3653C79.5419 18.5318 80 17.426 80 16.2505C80 15.075 79.5419 13.9679 78.7097 13.1356L78.071 12.4969ZM70.8671 3.74854C71.1252 3.48918 71.4684 3.34725 71.8348 3.34725C74.9148 3.34725 77.4193 5.85176 77.4193 8.93176C77.4193 9.29692 77.2774 9.64144 77.0181 9.8995L67.8581 19.0595L61.7071 12.9085L70.8671 3.74854ZM46.569 40.3498L40.4168 34.1976L59.8826 14.7318L66.0335 20.8827L46.569 40.3498ZM36.5858 44.6376C36.3342 44.6376 36.129 44.4337 36.129 44.1808C36.129 41.2569 37.0477 38.4814 38.7277 36.1576L44.609 42.0389C42.2852 43.7176 39.5084 44.6376 36.5858 44.6376ZM72.2581 76.8956C72.2581 77.6079 71.6787 78.186 70.9677 78.186H3.87097C3.16 78.186 2.58065 77.6079 2.58065 76.8956V9.79886C2.58065 9.0866 3.16 8.50854 3.87097 8.50854H62.4568L38.3316 32.6337C35.2465 35.7176 33.5484 39.8195 33.5484 44.1808C33.5484 44.5408 33.6219 44.8827 33.7381 45.2027L31.3458 47.595L33.1703 49.4195L35.5626 47.0272C35.8839 47.1447 36.2245 47.2182 36.5858 47.2182C40.9471 47.2182 45.049 45.5201 48.1329 42.435L63.3432 27.2247L63.9806 27.8634C64.8129 28.6956 65.9187 29.1537 67.0968 29.1537C68.2748 29.1537 69.3806 28.6956 70.2116 27.8634L72.2581 25.8169V76.8956ZM76.8852 17.5408L68.3871 26.0389C67.6994 26.7292 66.4968 26.7292 65.8064 26.0389L65.1677 25.4001L76.2465 14.3214L76.8839 14.9601C77.2297 15.306 77.4193 15.7627 77.4193 16.2505C77.4193 16.7382 77.2297 17.195 76.8852 17.5408Z" fill="#1E1E1E"/>
</svg>
