<svg width="80" height="81" viewBox="0 0 80 81" fill="none" xmlns="http://www.w3.org/2000/svg">
<path d="M15.4839 63.9922H23.2258V70.4438H15.4839V63.9922Z" fill="#1F9CE1"/>
<path d="M23.2256 48.5083H30.9675V54.9599H23.2256V48.5083Z" fill="#1F9CE1"/>
<path d="M30.9678 63.9922H38.7097V70.4438H30.9678V63.9922Z" fill="#1F9CE1"/>
<path d="M28.3871 43.3469C26.2529 43.3469 24.5161 41.6101 24.5161 39.4759C24.5161 37.3418 26.2529 35.605 28.3871 35.605C30.5213 35.605 32.258 37.3418 32.258 39.4759C32.258 41.6101 30.5213 43.3469 28.3871 43.3469Z" fill="#1F9CE1"/>
<path d="M38.7096 35.6047C36.5754 35.6047 34.8386 33.868 34.8386 31.7338C34.8386 29.5996 36.5754 27.8628 38.7096 27.8628C40.8438 27.8628 42.5806 29.5996 42.5806 31.7338C42.5806 33.868 40.8438 35.6047 38.7096 35.6047Z" fill="#1F9CE1"/>
<path d="M49.0321 27.863C46.8979 27.863 45.1611 26.1263 45.1611 23.9921C45.1611 21.8579 46.8979 20.1211 49.0321 20.1211C51.1663 20.1211 52.9031 21.8579 52.9031 23.9921C52.9031 26.1263 51.1663 27.863 49.0321 27.863Z" fill="#1F9CE1"/>
<path d="M66.5511 15.9882C67.884 14.6565 68.5421 12.823 68.3563 10.9611C68.2105 9.50558 67.6801 5.85526 65.9782 2.15332C62.9653 2.38171 59.9111 3.07848 56.6672 4.54558L56.8453 5.06042C57.3769 6.59203 57.5769 8.22816 57.7705 9.80881C57.9576 11.334 58.1511 12.9095 58.644 14.3572C59.293 16.2617 61.0827 17.5404 63.0995 17.5404C64.4995 17.5404 65.8014 16.7378 66.5511 15.9882Z" fill="#1F9CE1"/>
<path d="M80 12.3795C80 4.56531 76.2013 0.766602 68.3871 0.766602C58.9677 0.766602 50.9768 4.73821 41.6929 14.0234L40.9097 14.7653C37.4774 13.635 25.6181 9.79886 22.7394 9.79886C19.4503 9.79886 16.7742 12.475 16.7742 15.764C16.7742 17.226 17.3097 18.6337 18.28 19.7266L26.231 28.6711L17.7471 36.7085L6.87355 27.7524C6.11484 26.9924 5.10323 26.5731 4.0271 26.5731C1.80645 26.5731 0 28.3795 0 30.6001C0 32.506 3.49677 41.2272 5.9729 47.1627L4.56258 48.5731C3.28387 49.8518 2.58065 51.5498 2.58065 53.3563C2.58065 57.0866 5.61548 60.1214 9.34581 60.1214C11.8723 60.1214 14.3406 59.6453 16.6865 58.7072L18.0645 58.1563V62.7021H10.3226V80.7666H43.871V62.7021H36.129V50.5472L43.5793 46.2892L62.9342 60.5163C63.6658 61.0931 64.5819 61.4118 65.5135 61.4118C67.809 61.4118 69.6774 59.5434 69.6774 57.2479C69.6774 55.6582 66.2452 43.8092 63.5394 34.7124C71.2413 28.8143 80 20.3576 80 12.3795ZM20.2103 18.0118C19.6581 17.3911 19.3548 16.5937 19.3548 15.764C19.3548 13.8969 20.8723 12.3795 22.7394 12.3795C24.591 12.3795 32.8232 14.8505 38.7806 16.7847L28.1071 26.8956L20.2103 18.0118ZM4.0271 29.1537C4.41419 29.1537 4.77677 29.3047 5.14194 29.6608L18.6619 40.804L9.51742 48.933C6.01419 40.6685 2.60645 31.9253 2.58065 30.6001C2.58065 29.8027 3.22968 29.1537 4.0271 29.1537ZM12.9032 65.2827H25.8064V78.186H12.9032V65.2827ZM41.2903 78.186H28.3871V65.2827H41.2903V78.186ZM20.6452 62.7021V49.7989H33.5484V62.7021H20.6452ZM64.4968 58.4634L42.0658 41.9731L58.6981 27.5589C62.1342 38.9085 67.031 55.5911 67.0968 57.2466C67.0968 58.475 65.5845 59.3189 64.4968 58.4634ZM62.7484 32.0621C61.7806 28.8311 60.9819 26.1963 60.5897 24.9072L60.0116 23.0066L37.9342 42.1395L41.3045 44.6169L36.129 47.5756V47.2182H18.0645V55.3769L15.7265 56.3111C13.6877 57.1279 11.5406 57.5408 9.34581 57.5408C7.03871 57.5408 5.16129 55.6634 5.16129 53.3563C5.16129 52.2389 5.59613 51.1885 6.3871 50.3976L7.0529 49.7318C7.36129 50.4595 7.63484 51.1008 7.84774 51.5963L8.55226 53.2414L22.6297 40.7279L19.7548 38.3601L43.4929 15.8711C54.5303 4.83499 62.271 3.34725 68.3871 3.34725C74.8026 3.34725 77.4193 5.96402 77.4193 12.3795C77.4193 17.7047 72.2219 24.6543 62.7484 32.0621Z" fill="#1E1E1E"/>
</svg>
